Coordinates
version=1
nRows=8
nColumns=40
inDegrees=yes

Units are S.I. units (second, meters, Newtons, ...)
Angles are in degrees.

endheader
time	pelvis_tilt	pelvis_list	pelvis_rotation	pelvis_tx	pelvis_ty	pelvis_tz	hip_flexion_r	hip_adduction_r	hip_rotation_r	knee_angle_r	knee_angle_r_beta	ankle_angle_r	subtalar_angle_r	mtp_angle_r	hip_flexion_l	hip_adduction_l	hip_rotation_l	knee_angle_l	knee_angle_l_beta	ankle_angle_l	subtalar_angle_l	mtp_angle_l	lumbar_extension	lumbar_bending	lumbar_rotation	arm_flex_r	arm_add_r	arm_rot_r	elbow_flex_r	pro_sup_r	wrist_flex_r	wrist_dev_r	arm_flex_l	arm_add_l	arm_rot_l	elbow_flex_l	pro_sup_l	wrist_flex_l	wrist_dev_l
     30.22242857	     -6.41134039	     -3.41632959	      1.73544565	      1.03588026	      0.91710652	      0.39321652	     29.91890686	     -2.51350184	    -17.49546421	      9.76080359	      9.76080359	      1.94256452	      4.33893713	     12.43743998	      1.22255574	     -4.01053635	    -11.40797319	     12.64970248	     12.64970248	     18.30310208	     -3.49345128	     -5.71467768	    -11.76949251	      4.58076611	      1.68507846	    -12.53795952	    -13.35961344	    -12.52032149	     30.74367430	     46.66041270	      0.00000000	      0.00000000	     13.62947821	    -15.62174432	     -7.77961010	    102.62060614	     48.33224416	      0.00000000	      0.00000000
     30.23485714	     -6.48590209	     -3.42386885	      1.90354783	      1.03898213	      0.91486717	      0.39467071	     29.32664744	     -2.22145925	    -17.92578314	      9.07054645	      9.07054645	      1.53105596	      4.64845501	     12.11957913	      0.56647050	     -4.18620793	    -11.47258294	     12.66466042	     12.66466042	     18.91164072	     -3.09177101	     -5.83423987	    -11.37188784	      4.65366246	      1.79551131	    -12.70791326	    -13.24372351	    -12.45309559	     30.84606765	     46.64339208	      0.00000000	      0.00000000	     13.23856133	    -15.48615544	     -7.54217200	    102.78414395	     48.32613385	      0.00000000	      0.00000000
     30.24728571	     -6.45240244	     -3.43053572	      2.07724506	      1.04220782	      0.91273900	      0.39641445	     28.68389793	     -1.93743581	    -18.10360205	      8.70163153	      8.70163153	     -0.55270006	      4.33673942	      6.97574991	      0.02606704	     -4.53976876	    -12.08603954	     13.23729087	     13.23729087	     20.26935585	     -1.62292689	     -4.93524665	    -11.09324149	      4.71097198	      1.87714424	    -12.88134651	    -13.09186758	    -11.88900040	     31.26579908	     46.54439956	      0.00000000	      0.00000000	     12.78529315	    -15.41725680	     -7.22141809	    102.86289766	     48.35870950	      0.00000000	      0.00000000
     30.25971429	     -6.48847071	     -3.58301047	      2.19342244	      1.04527825	      0.91107750	      0.39825890	     28.34538702	     -1.61588783	    -18.30044877	      9.06911086	      9.06911086	     -1.02153365	      4.16068311	      6.71262704	     -0.58638376	     -4.89314078	    -11.96219652	     13.37595621	     13.37595621	     20.66759568	     -1.71307803	     -4.99105357	    -10.80377390	      4.97178274	      2.03185982	    -12.69310825	    -13.05470536	    -11.84472326	     31.30534392	     46.53915384	      0.00000000	      0.00000000	     12.18900152	    -15.17697966	     -7.05705744	    102.65247685	     48.34358193	      0.00000000	      0.00000000
     30.27214286	     -6.43140653	     -3.65852314	      2.35177497	      1.04840001	      0.90958128	      0.40036007	     27.85970500	     -1.31958243	    -18.00881758	      9.32577288	      9.32577288	     -3.61029509	      2.82020062	      0.07832196	     -0.97911641	     -5.34290495	    -12.20276338	     14.21941459	     14.21941459	     21.75901352	     -0.98190553	     -3.95230414	    -10.59229833	      5.11977277	      2.01500024	    -12.08003821	    -13.01634869	    -11.10217439	     30.81636416	     46.48614918	      0.00000000	      0.00000000	     11.51816424	    -15.02286521	     -7.09869033	    102.06881193	     48.37264723	      0.00000000	      0.00000000
     30.28457143	     -6.34817759	     -3.86646988	      2.42611203	      1.05125749	      0.90885075	      0.40259946	     27.64844225	     -1.03574554	    -18.04938948	     10.39045463	     10.39045463	     -3.90462386	      2.37982061	     -0.47686758	     -1.47697896	     -5.84040582	    -12.07219451	     14.75971487	     14.75971487	     21.94896220	     -1.27534752	     -3.95152479	    -10.54646999	      5.40917471	      2.16916656	    -11.51960398	    -13.01502515	    -11.02806700	     30.98035565	     46.47611378	      0.00000000	      0.00000000	     10.69454552	    -14.77548276	     -6.92825828	    101.53879526	     48.35093318	      0.00000000	      0.00000000
     30.29700000	     -6.32324944	     -3.96772334	      2.50756494	      1.05389709	      0.90833960	      0.40496533	     27.68117531	     -0.91659166	    -17.85456501	     11.82439270	     11.82439270	     -4.05992167	      1.50427211	     -1.63957367	     -1.61555319	     -6.29475226	    -11.95515096	     15.83713099	     15.83713099	     22.13993177	     -1.73901602	     -3.91651523	    -10.40195748	      5.61086843	      2.23217843	    -10.68308334	    -12.93104777	    -10.84042081	     31.10139288	     46.46096154	      0.00000000	      0.00000000	      9.87693781	    -14.58585362	     -6.91978997	    100.53684195	     48.33234207	      0.00000000	      0.00000000
     30.30942857	     -6.20322340	     -4.10179401	      2.56971993	      1.05626101	      0.90855634	      0.40747296	     27.58692972	     -0.74475979	    -17.57001267	     13.18910804	     13.18910804	     -4.04731590	      0.69933065	     -2.62612536	     -1.68288614	     -6.82315136	    -11.70355771	     17.17728364	     17.17728364	     22.09354350	     -2.29937284	     -3.89444065	    -10.54744492	      5.81287222	      2.32573731	     -9.71833237	    -12.93573674	    -10.63722105	     31.20873675	     46.44728553	      0.00000000	      0.00000000	      8.99756965	    -14.30785433	     -6.91892474	     99.35852927	     48.30950877	      0.00000000	      0.00000000
